<mxfile host="app.diagrams.net" modified="2023-12-03T09:06:26.401Z" agent="Mozilla/5.0 (Windows NT 10.0; Win64; x64) AppleWebKit/537.36 (KHTML, like Gecko) Chrome/119.0.0.0 Safari/537.36" version="21.7.4" etag="3roACyDIUFLP_4ZlYH8M" type="github">
  <diagram name="페이지-1" id="J32g3F7skg_GE0uoBG4f">
    <mxGraphModel>
      <root>
        <mxCell id="0" />
        <mxCell id="1" parent="0" />
      </root>
    </mxGraphModel>
  </diagram>
</mxfile>
